<svg xmlns="http://www.w3.org/2000/svg" viewBox="0 0 264.96 252.54">
  <defs>
    <style>
      .star-inner {width: 100%; fill:yellow;}
      .star-border {fill:#726f00;}
    </style>

    <clipPath id="star-wrap">
      <path style="fill:none;" d="M210.91,247.54a.55.55,0,0,1-.27-.08L137.4,209a10.53,10.53,0,0,0-9.84,0l-73.24,38.5a.51.51,0,0,1-.27.08.66.66,0,0,1-.46-.23.47.47,0,0,1-.1-.45l14-81.56a10.58,10.58,0,0,0-3-9.36L5.18,98.18A.51.51,0,0,1,5,97.6a.5.5,0,0,1,.47-.39l81.89-11.9a10.59,10.59,0,0,0,8-5.79L132,5.32a.52.52,0,0,1,.51-.32h0a.53.53,0,0,1,.52.32l36.62,74.2a10.57,10.57,0,0,0,8,5.79l81.89,11.9a.5.5,0,0,1,.46.39.49.49,0,0,1-.15.58l-59.25,57.76a10.58,10.58,0,0,0-3,9.36l14,81.56a.5.5,0,0,1-.11.45A.64.64,0,0,1,210.91,247.54Z"/>
    </clipPath>
  </defs>

  <g class="use-clip" style="clip-path:url(#star-wrap);">
    <rect class="star-inner" style="height: 100%;" />
  </g>

  <path class="star-border" d="M132.48,15.58l32.65,66.16a15.57,15.57,0,0,0,11.73,8.51l73,10.61L197,152.36a15.57,15.57,0,0,0-4.48,13.79L205,238.86l-65.3-34.33a15.58,15.58,0,0,0-14.5,0l-65.3,34.33L72.4,166.15a15.54,15.54,0,0,0-4.48-13.79l-52.83-51.5,73-10.61a15.56,15.56,0,0,0,11.73-8.51l32.65-66.16m0-15.58a5.52,5.52,0,0,0-5,3.11L90.86,77.31a5.6,5.6,0,0,1-4.19,3L4.78,92.26a5.57,5.57,0,0,0-3.09,9.5l59.25,57.76a5.57,5.57,0,0,1,1.61,4.94L48.56,246a5.56,5.56,0,0,0,8.09,5.88l73.24-38.51a5.56,5.56,0,0,1,5.18,0l73.25,38.51a5.52,5.52,0,0,0,2.59.65A5.58,5.58,0,0,0,216.4,246l-14-81.55a5.59,5.59,0,0,1,1.6-4.94l59.25-57.76a5.57,5.57,0,0,0-3.09-9.5L178.3,80.36a5.6,5.6,0,0,1-4.2-3L137.48,3.11a5.51,5.51,0,0,0-5-3.11Z"/>
</svg>